<?xml version="1.0" encoding="UTF-8" standalone="no"?>
<svg
   viewBox="0 0 16 16"
   width="16"
   height="16"
   version="1.1"
   id="svg18"
   sodipodi:docname="ftu.svg"
   inkscape:version="1.1.2 (0a00cf5339, 2022-02-04)"
   xmlns:inkscape="http://www.inkscape.org/namespaces/inkscape"
   xmlns:sodipodi="http://sodipodi.sourceforge.net/DTD/sodipodi-0.dtd"
   xmlns:xlink="http://www.w3.org/1999/xlink"
   xmlns="http://www.w3.org/2000/svg"
   xmlns:svg="http://www.w3.org/2000/svg">
  <sodipodi:namedview
     id="namedview20"
     pagecolor="#ffffff"
     bordercolor="#666666"
     borderopacity="1.0"
     inkscape:pageshadow="2"
     inkscape:pageopacity="0.0"
     inkscape:pagecheckerboard="0"
     showgrid="false"
     inkscape:zoom="36.8125"
     inkscape:cx="8"
     inkscape:cy="8"
     inkscape:window-width="1600"
     inkscape:window-height="815"
     inkscape:window-x="0"
     inkscape:window-y="0"
     inkscape:window-maximized="1"
     inkscape:current-layer="backdrop" />
  <linearGradient
     id="g0"
     x1="0%"
     y1="0%"
     x2="0%"
     y2="100%">
    <stop
       offset="0%"
       style="stop-color:#212325;stop-opacity:1"
       id="stop2" />
    <stop
       offset="100%"
       style="stop-color:#303234;stop-opacity:1"
       id="stop4" />
  </linearGradient>
  <linearGradient
     id="g1"
     x1="0%"
     y1="0%"
     x2="100%"
     y2="100%">
    <stop
       offset="0%"
       style="stop-color:#0061e0;stop-opacity:1"
       id="stop3" />
    <stop
       offset="100%"
       style="stop-color:#00ddff;stop-opacity:1"
       id="stop5" />
  </linearGradient>
  <linearGradient
     id="g2"
     x1="0%"
     y1="0%"
     x2="0%"
     y2="100%">
    <stop
       offset="0%"
       style="stop-color:#00ddff;stop-opacity:0.25"
       id="stop7" />
    <stop
       offset="100%"
       style="stop-color:#b0ddff;stop-opacity:0.25"
       id="stop9" />
  </linearGradient>
  <linearGradient
     id="g3"
     x1="0%"
     y1="0%"
     x2="0%"
     y2="100%">
    <stop
       offset="0%"
       style="stop-color:#0061e0;stop-opacity:0.25"
       id="stop7" />
    <stop
       offset="100%"
       style="stop-color:#00ddff;stop-opacity:0.25"
       id="stop9" />
  </linearGradient>
  <linearGradient
     id="g2"
     x1="0%"
     y1="0%"
     x2="0%"
     y2="100%">
    <stop
       offset="0%"
       style="stop-color:#00a0e8;stop-opacity:0.25"
       id="stop7" />
    <stop
       offset="100%"
       style="stop-color:#0061e0;stop-opacity:0.25"
       id="stop9" />
  </linearGradient>
  <style
     id="style12">
      .ac-color {
         fill: url(#g0);
      }

      .ac-color1 {
         fill: url(#g1);
      }

      .ac-color2 {
         fill: url(#g2);
      }

      .ac-color3 {
         fill: url(#g3);
      }

      .ac-color4 {
         fill: url(#g4);
      }
   </style>
  <clipPath
     id="clip">
    <path
       d="M3 10 6 10 6 13 3 13 3 10M10 10 13 10 13 13 10 13 10 10M6 10 8 6 8 9 6 13 6 10M8 6 10 10 10 13 8 9 8 6M3 10 7 3 9 3 13 10 10 10 8 6 6 10 3 10"
       id="path21" />
  </clipPath>
  <filter
     id="blur"
     width="1.3"
     height="1.3"
     x="-0.15"
     y="-0.15">
    <!-- insert a neutral background color to prevent the backdrop showing
         through blurred regions with alpa < 1 -->
    <feFlood
       flood-color="#fff"
       result="neutral"
       id="feFlood18" />
    <feGaussianBlur
       in="SourceGraphic"
       stdDeviation="1"
       result="blurred"
       id="feGaussianBlur20" />
    <feMerge
       id="feMerge26">
      <feMergeNode
         in="neutral"
         id="feMergeNode22" />
      <feMergeNode
         in="blurred"
         id="feMergeNode24" />
    </feMerge>
  </filter>
  <!-- group everything you want to include in the backdrop -->
  <g
     id="backdrop">
    <path
       d="M4 0 12 0Q16 0 16 4L16 12Q16 16 12 16L4 16Q0 16 0 12L0 4Q0 0 4 0"
       class="ac-color"
       id="path14" />
    <path
       d="M3 13 7 6 9 6 13 13 10 13 8 9 6 13 3 13"
       class="ac-color1"
       id="path19" />
  </g>
  <!-- make sure the clip-path is applied after the filter -->
  <g
     style="clip-path: url(#clip)"
     clip-path="url(#clip)"
     id="g34">
    <use
       xlink:href="#backdrop"
       style="filter: url(#blur)"
       id="use32" />
  </g>
  <use
     xlink:href="#rect"
     style="fill:none;stroke:black"
     id="use36" />
  <path
     d="M3 10 7 3 9 3 13 10 10 10 8 6 6 10 3 10"
     class="ac-color2"
     id="path22" />
  <path
     d="M3 10 6 10 6 13 3 13 3 1M8 6 10 10 10 13 8 9 8 6"
     class="ac-color3"
     id="path24" />
  <path
     d="M10 10 13 10 13 13 10 13 10 10M6 10 8 6 8 9 6 13 6 10"
     class="ac-color4"
     id="path26" />
</svg>
